
        <svg xmlns="http://www.w3.org/2000/svg" xmlns:xlink="http://www.w3.org/1999/xlink" version="1.1" width="3187.5" height="1114.2699722588782" viewBox="0 0 3187.5 1114.2699722588782">
			
			<g transform="scale(9.375) translate(10, 10)">
				<defs id="SvgjsDefs2543"/><g id="SvgjsG2544" featureKey="PG4fjM-0" transform="matrix(1.2320280289384464,0,0,1.2320280289384464,-11.918641238667925,-10.79749357041952)" fill="#000"><g xmlns="http://www.w3.org/2000/svg"><path d="M87.635,33.209c1.906-0.823,3.204-2.695,3.204-4.848c0-2.877-2.299-5.228-5.156-5.31c-1.463-2.763-4.588-4.354-7.817-3.684   C70.435,12.53,60.82,8.764,50.72,8.764c-22.122,0-40.119,17.997-40.119,40.119c0,2.007,0.164,4.048,0.474,6.075   c-0.896,0.978-1.401,2.251-1.401,3.57c0,2.329,1.537,4.354,3.719,5.044c6,15.229,20.933,25.43,37.328,25.43   c10.868,0,21.028-4.279,28.641-12.047c0.848,0.541,1.836,0.834,2.851,0.834c2.928,0,5.31-2.382,5.31-5.31   c0-1.556-0.675-2.981-1.828-3.98c3.357-5.978,5.146-12.734,5.146-19.616C90.839,43.446,89.752,38.182,87.635,33.209z    M83.866,67.451c-0.174-0.059-0.35-0.106-0.526-0.146c-0.074-0.017-0.146-0.037-0.221-0.05c-0.25-0.046-0.501-0.078-0.754-0.086   c-1.246-2.353-3.681-3.838-6.384-3.838c-0.268,0-0.532,0.02-0.795,0.049c-0.082,0.009-0.163,0.024-0.244,0.036   c-0.183,0.027-0.364,0.06-0.543,0.101c-0.089,0.021-0.178,0.042-0.266,0.065c-0.181,0.049-0.357,0.105-0.533,0.167   c-0.073,0.026-0.147,0.049-0.22,0.077c-0.243,0.095-0.481,0.2-0.713,0.321c-0.023,0.013-0.046,0.027-0.068,0.04   c-0.208,0.111-0.41,0.233-0.606,0.364c-0.068,0.046-0.134,0.095-0.2,0.144c-0.15,0.107-0.297,0.222-0.439,0.341   c-0.067,0.057-0.134,0.113-0.199,0.173c-0.046,0.042-0.096,0.079-0.141,0.122c-1.504-2.221-3.395-4.186-5.521-5.802   c0.549-0.94,1.152-1.922,1.787-2.948c3.107-5.021,6.974-11.27,6.974-18.042c0-1.669-0.186-3.315-0.54-4.914   c0.149-0.019,0.296-0.05,0.442-0.08c0.018-0.004,0.035-0.008,0.054-0.012c0.27-0.06,0.532-0.139,0.789-0.239   c0.043-0.017,0.086-0.03,0.128-0.048c0.275-0.116,0.545-0.248,0.799-0.41c0.767,0.405,1.605,0.658,2.463,0.764   c0.012,0.002,0.023,0.005,0.035,0.007c0.188,0.021,0.377,0.025,0.566,0.033c0.103,0.004,0.205,0.019,0.309,0.019   c0.068,0,0.137-0.011,0.205-0.013c1.099-0.03,2.191-0.294,3.168-0.81c0.214,0.137,0.438,0.257,0.667,0.361   c0.159,0.072,0.325,0.126,0.489,0.182c0.074,0.025,0.146,0.059,0.221,0.08c0.153,0.045,0.312,0.071,0.469,0.103   c0.097,0.019,0.19,0.044,0.288,0.058c0.127,0.018,0.257,0.02,0.387,0.027c0.112,0.008,0.223,0.024,0.336,0.024   c0.028,0,0.059-0.004,0.088-0.005c0.018,0,0.035,0.004,0.054,0.003c2.104,4.817,3.169,9.932,3.169,15.214   c0,6.522-1.674,12.935-4.849,18.604C83.949,67.472,83.907,67.466,83.866,67.451z M35.768,55.308   c-2.771-4.345-5.863-9.212-6.468-14.828h10.107c0.185,5.191,1.739,10.067,3.136,14.397c1.126,3.487,2.195,6.801,2.399,9.805h-4.664   C39.9,61.789,37.969,58.759,35.768,55.308z M68.063,26.654c-0.059,0.166-0.112,0.334-0.153,0.503   c-0.024,0.103-0.045,0.205-0.063,0.31c-0.053,0.295-0.089,0.593-0.089,0.895c0,0.317,0.03,0.627,0.084,0.93   c0.006,0.033,0.014,0.065,0.021,0.1c0.015,0.074,0.041,0.144,0.059,0.217c0.046,0.19,0.092,0.381,0.157,0.563   c0.022,0.064,0.051,0.126,0.077,0.189c0.026,0.064,0.058,0.125,0.087,0.188c0.067,0.149,0.135,0.298,0.216,0.439   c0.048,0.084,0.104,0.163,0.156,0.245c0.034,0.053,0.066,0.105,0.102,0.156c0.082,0.116,0.166,0.229,0.257,0.339   c0.063,0.075,0.129,0.146,0.196,0.218c0.027,0.03,0.054,0.063,0.083,0.092c0.029,0.031,0.055,0.065,0.085,0.096   c0.088,0.085,0.183,0.161,0.276,0.241c0.067,0.058,0.137,0.113,0.208,0.167c0.086,0.066,0.164,0.14,0.254,0.2   c0.093,0.064,0.198,0.11,0.295,0.168c0.07,0.041,0.14,0.082,0.213,0.12c0.092,0.048,0.18,0.102,0.275,0.145   c0.147,0.068,0.301,0.121,0.455,0.176c0.043,0.015,0.088,0.026,0.131,0.041c0.002,0,0.003,0.001,0.005,0.001   c0.06,0.019,0.114,0.048,0.175,0.064c0.413,1.624,0.622,3.311,0.627,5.023h-10.2c-0.185-8.909-3.233-15.151-5.796-19.573   c4.85,1.129,9.005,3.718,11.901,7.441C68.117,26.445,68.098,26.554,68.063,26.654z M60.05,38.479H41.396   c0.249-9.399,3.913-15.75,6.488-20.045c1.86-0.212,3.834-0.216,5.781,0.018C56.232,22.74,59.842,29.072,60.05,38.479z    M39.393,38.479H29.189c0.027-9.749,6.649-17.466,16.11-19.608C42.72,23.303,39.613,29.564,39.393,38.479z M44.446,54.263   c-1.415-4.386-2.858-8.915-3.039-13.783h18.62c-0.206,4.808-1.634,9.284-3.033,13.621c-1.201,3.72-2.341,7.249-2.511,10.581h-7.536   C46.749,61.397,45.627,57.922,44.446,54.263z M58.896,54.715c1.383-4.284,2.92-9.104,3.131-14.235h10.105   c-0.628,5.46-3.754,10.524-6.553,15.049c-2.136,3.45-4.012,6.483-4.407,9.153h-4.687C56.663,61.636,57.751,58.266,58.896,54.715z    M84.135,24.456c0.168,0.409,0.577,0.654,1.025,0.615c0.121-0.013,0.244-0.021,0.368-0.021c1.825,0,3.311,1.485,3.311,3.312   c0,1.602-1.147,2.968-2.729,3.249c-0.942,0.166-1.979-0.092-2.728-0.731c-0.09-0.076-0.19-0.133-0.296-0.173   c-0.032-0.013-0.066-0.014-0.101-0.022c-0.075-0.021-0.149-0.038-0.228-0.04c-0.009,0-0.018-0.005-0.026-0.005   c-0.053,0-0.105,0.015-0.157,0.022c-0.038,0.007-0.076,0.006-0.113,0.017c-0.098,0.027-0.193,0.068-0.281,0.127   c-1.715,1.133-4.049,1.133-5.764,0c-0.372-0.246-0.863-0.216-1.201,0.074c-0.598,0.511-1.36,0.792-2.146,0.792   c-0.155,0-0.305-0.025-0.49-0.054c-0.204-0.03-0.4-0.078-0.589-0.142c-0.001-0.001-0.001-0.001-0.002-0.001   c-0.164-0.056-0.318-0.128-0.468-0.206c-0.043-0.023-0.086-0.045-0.127-0.069c-0.113-0.065-0.22-0.14-0.323-0.218   c-0.072-0.055-0.143-0.112-0.209-0.173c-0.073-0.064-0.143-0.131-0.209-0.201c-0.082-0.089-0.159-0.184-0.231-0.28   c-0.045-0.061-0.092-0.12-0.132-0.184c-0.076-0.117-0.14-0.241-0.2-0.367c-0.027-0.059-0.06-0.114-0.084-0.175   c-0.057-0.14-0.098-0.287-0.136-0.436c-0.014-0.056-0.034-0.108-0.046-0.165c-0.041-0.208-0.064-0.421-0.064-0.64   c0-0.269,0.038-0.535,0.108-0.798c0.006-0.022,0.015-0.044,0.021-0.067c0.074-0.256,0.176-0.509,0.316-0.756   c0.538-0.951,1.528-1.551,2.566-1.66c0.072-0.007,0.144-0.021,0.217-0.021c0.149-0.006,0.299-0.003,0.448,0.013   c0.447,0.034,0.857-0.207,1.026-0.614c0.602-1.462,1.872-2.596,3.399-3.033C80.571,20.648,83.148,22.055,84.135,24.456z    M11.673,58.528c0-0.946,0.4-1.822,1.126-2.466c0.712-0.631,1.663-0.918,2.551-0.824c0.445,0.035,0.858-0.206,1.026-0.615   c0.81-1.97,2.709-3.242,4.837-3.242c2.129,0,4.026,1.272,4.836,3.242c0.168,0.409,0.581,0.655,1.025,0.615   c0.121-0.013,0.244-0.021,0.368-0.021c1.825,0,3.311,1.485,3.311,3.312c0,1.825-1.485,3.31-3.311,3.31   c-0.787,0-1.549-0.281-2.146-0.792c-0.09-0.076-0.189-0.132-0.295-0.172c-0.035-0.014-0.073-0.016-0.109-0.025   c-0.072-0.019-0.144-0.036-0.219-0.038c-0.009,0-0.018-0.005-0.027-0.005c-0.055,0-0.107,0.015-0.162,0.023   c-0.036,0.006-0.072,0.006-0.107,0.016c-0.099,0.027-0.193,0.068-0.282,0.127c-1.715,1.133-4.049,1.133-5.764,0   c-0.372-0.246-0.863-0.216-1.201,0.074c-0.654,0.561-1.474,0.828-2.371,0.763c-0.142-0.011-0.28-0.008-0.427-0.037   c-0.001,0-0.001,0-0.002,0C12.79,61.463,11.673,60.101,11.673,58.528z M15.638,63.797c0.081-0.01,0.16-0.03,0.24-0.044   c0.069-0.012,0.139-0.022,0.207-0.037c0.271-0.058,0.538-0.136,0.797-0.235c0.058-0.021,0.113-0.048,0.17-0.072   c0.272-0.115,0.538-0.245,0.788-0.405c2.073,1.095,4.671,1.097,6.746,0c0.848,0.542,1.84,0.835,2.856,0.835   c2.929,0,5.311-2.382,5.311-5.31c0-2.877-2.299-5.228-5.156-5.31c-1.245-2.353-3.68-3.838-6.384-3.838   c-2.703,0-5.139,1.485-6.385,3.838c-0.321,0.01-0.639,0.053-0.95,0.121c-0.097,0.021-0.188,0.059-0.282,0.086   c-0.212,0.059-0.422,0.118-0.625,0.203c-0.021,0.01-0.046,0.013-0.067,0.022c-0.201-1.596-0.303-3.193-0.303-4.769   c0-21.019,17.101-38.119,38.119-38.119c9.257,0,18.089,3.323,25.038,9.39c-0.043,0.024-0.081,0.057-0.123,0.082   c-0.211,0.124-0.415,0.259-0.611,0.404c-0.06,0.044-0.12,0.085-0.178,0.13c-0.238,0.187-0.466,0.387-0.679,0.601   c-0.042,0.042-0.079,0.087-0.119,0.13c-0.174,0.183-0.337,0.375-0.49,0.574c-0.052,0.067-0.103,0.133-0.151,0.201   c-0.178,0.249-0.346,0.506-0.49,0.776c-0.305,0.009-0.604,0.055-0.897,0.115c-0.096,0.02-0.189,0.04-0.282,0.064   c-0.227,0.061-0.448,0.134-0.664,0.224c-0.146,0.06-0.284,0.129-0.423,0.201c-0.14,0.073-0.277,0.148-0.41,0.233   c-0.133,0.084-0.26,0.172-0.385,0.268c-0.085,0.065-0.165,0.139-0.246,0.209c-0.102,0.088-0.212,0.165-0.306,0.261   c-3.623-4.379-8.845-7.25-14.889-8.095c-0.001,0-0.002,0-0.003,0c-1.224-0.171-2.466-0.257-3.69-0.257   c-13.417,0-23.534,9.571-23.534,22.264c0,7.031,3.663,12.775,6.895,17.844c0.687,1.077,1.336,2.104,1.921,3.093   c-5.492,4.196-9.154,11.254-9.693,18.6C21.749,74.273,18.036,69.426,15.638,63.797z M50.72,87.002   c-8.232,0-16.065-2.725-22.477-7.412c0.108-7.169,3.482-14.212,8.741-18.354c0.826,1.611,1.36,3.094,1.36,4.445   c0,0.553,0.447,1,1,1h22.751c0.553,0,1-0.447,1-1c0-1.247,0.562-2.727,1.417-4.38c2.026,1.583,3.813,3.51,5.196,5.686   c-0.035,0.062-0.07,0.121-0.104,0.182c-2.86,0.078-5.164,2.431-5.164,5.311c0,2.928,2.382,5.31,5.311,5.31   c1.017,0,2.009-0.294,2.857-0.837c0.165,0.086,0.334,0.166,0.507,0.24c0.046,0.733,0.078,1.743,0.088,2.476   C66.722,84.433,58.933,87.002,50.72,87.002z M75.164,78.127c-0.005-0.13-0.011-0.26-0.016-0.388   c0.142,0.017,0.283,0.029,0.426,0.038C75.438,77.895,75.302,78.012,75.164,78.127z M82.211,75.789   c-0.786,0-1.549-0.282-2.147-0.793c-0.186-0.159-0.417-0.24-0.649-0.24c-0.192,0-0.385,0.055-0.553,0.167   c-0.163,0.107-0.338,0.197-0.513,0.287c-0.621,0.317-1.28,0.506-1.952,0.561c-0.335,0.027-0.674,0.021-1.013-0.019   s-0.677-0.114-1.012-0.223c-0.464-0.15-0.892-0.355-1.271-0.606c-0.371-0.247-0.862-0.217-1.202,0.073   c-0.599,0.511-1.361,0.793-2.146,0.793c-1.825,0-3.311-1.484-3.311-3.31c0-1.826,1.485-3.313,3.311-3.313   c0.121,0,0.242,0.009,0.36,0.021c0.45,0.051,0.863-0.203,1.032-0.614c0.13-0.314,0.314-0.642,0.566-1.001   c0.983-1.403,2.58-2.242,4.271-2.242c2.128,0,4.026,1.273,4.836,3.243c0.169,0.411,0.585,0.665,1.032,0.614   c0.682-0.072,1.395,0.072,2.037,0.454c1.023,0.606,1.634,1.667,1.634,2.837C85.521,74.305,84.036,75.789,82.211,75.789z"/><path d="M60.896,67.947H40.544c-0.553,0-1,0.447-1,1v2.948v6.314c0,1.847,1.502,3.349,3.349,3.349h15.656   c1.846,0,3.348-1.502,3.348-3.349v-6.314v-2.948C61.896,68.395,61.449,67.947,60.896,67.947z M41.544,69.947h18.353v0.948H41.544   V69.947z M59.896,78.21c0,0.743-0.604,1.349-1.348,1.349H42.893c-0.743,0-1.349-0.605-1.349-1.349v-5.314h18.353V78.21z"/></g></g><g id="SvgjsG2545" featureKey="jxYttZ-0" transform="matrix(2.226179966078746,0,0,2.226179966078746,117.77382109544658,16.26980899677534)" fill="#000"><path d="M11.9 14.5 c0.06 0.14 0.54 1.5 -0.08 2.92 c-0.72 1.7 -2.74 2.76 -5.26 2.78 c-2.18 0 -4.16 -0.96 -5.56 -2.48 l1.48 -1.48 c0.7 1.24 2.48 2.12 4.08 2.12 c1.74 -0.02 2.76 -0.66 3.18 -1.66 c0.32 -0.74 0.06 -1.54 0.04 -1.56 c-0.42 -1.16 -1.58 -1.42 -3.22 -1.92 c-1.86 -0.56 -4 -1.02 -4.7 -2.98 c-0.38 -1.02 -0.28 -2.2 0.24 -3.16 c1.16 -2.2 4.12 -2.26 4.46 -2.26 c2.2 0 4.16 0.96 5.56 2.5 l-1.46 1.46 c-0.82 -1.2 -2.42 -2.12 -4.1 -2.12 c-0.02 0 -1.78 0 -2.46 1.28 c-0.26 0.5 -0.32 1.16 -0.14 1.68 c0.4 1.1 1.54 1.36 3.14 1.84 c1.9 0.58 4.04 1.02 4.8 3.04 z M21.840000000000003 20 l-3.74 -4.78 l-1.08 0.92 l0 3.86 l-2.08 0 l0 -15 l2.08 0 l0 8.58 l3.98 -3.46 l3.2 0 l-4.6 3.84 l4.9 6.04 l-2.66 0 z M34.480000000000004 10.12 c0 0 -2.5 5.92 -4.16 9.88 c-1.4 3.32 -2.5 5.32 -4.36 5.32 c-0.58 0 -1.32 -0.28 -1.86 -0.6 l0.62 -1.8 c0.16 0.14 0.52 0.34 0.76 0.4 c1.54 0.44 2.5 -2.78 3.16 -4.36 l-3.74 -8.84 l2.08 0 l2.72 6.48 l2.7 -6.48 l2.08 0 z M47.6 10.32 c0 2.28 -1.32 4.12 -3.22 4.92 l3.22 4.76 l-2.46 0 l-2.94 -4.36 l-3.5 0 l0 4.36 l-2.22 0 l0 -4.36 l0 -1.84 l0 -6.96 l0 -1.84 l2.22 0 l3.6 0 c2.94 0.02 5.3 2.3 5.3 5.32 z M38.7 6.84 l0 6.96 l3.58 0 c1.7 0 3.1 -1.44 3.1 -3.48 c0 -2.02 -1.4 -3.48 -3.1 -3.48 l-3.58 0 z M54.74 11.64 c-1.7 0 -3.08 1.42 -3.08 3.44 c0 2 1.38 3.44 3.08 3.44 s3.08 -1.44 3.08 -3.44 c0 -2.02 -1.38 -3.44 -3.08 -3.44 z M54.74 9.94 c2.84 0 5.14 2.2 5.14 5.14 s-2.3 5.12 -5.14 5.12 s-5.14 -2.18 -5.14 -5.12 s2.3 -5.14 5.14 -5.14 z M61.940000000000005 15.82 l0 -5.7 l2.06 0 l0 5.5 c0 2 0.62 2.88 2.32 2.88 c1.92 0 2.7 -1.34 2.7 -3.08 l0 -5.3 l2.06 0 l0 9.88 l-2.06 0 l0 -1.6 c-0.28 0.88 -1.52 1.68 -2.7 1.76 c-2.68 0.2 -4.38 -1.1 -4.38 -4.34 z M77.68 18.36 c0.64 0.26 1.14 0.08 1.44 -0.06 l0 1.6 c-0.26 0.16 -0.64 0.3 -1.18 0.3 c-1.18 0 -2.22 -0.38 -2.86 -1.42 c-0.6 -1 -0.6 -1.54 -0.6 -3.1 l0 -3.88 l-1.2 0 l0 -1.68 l1.2 0 l0 -3.12 l2.06 0 l0 3.12 l2.58 0 l0 1.68 l-2.58 0 l0 3.88 c0 1.64 0.16 2.24 1.14 2.68 z M90.84 15.08 l0 0.74 l-7.78 0 c0 1.82 1.74 2.7 3.02 2.7 c0.94 0 1.98 -0.5 2.54 -1.3 l1.42 1.28 c-0.66 0.9 -1.74 1.7 -3.96 1.7 c-3.2 0 -5.16 -2.18 -5.16 -5.12 s1.9 -5.14 4.96 -5.14 s4.46 1.7 4.88 4.18 c0.06 0.32 0.08 0.64 0.08 0.96 z M83.10000000000001 14.120000000000001 l5.58 0 c0 -1.6 -1.28 -2.48 -2.8 -2.48 s-2.78 1.02 -2.78 2.48 z"/></g>
			</g>
		</svg>
	